<?xml version="1.0" standalone="no"?>
<!DOCTYPE svg PUBLIC "-//W3C//DTD SVG 20010904//EN"
 "http://www.w3.org/TR/2001/REC-SVG-20010904/DTD/svg10.dtd">
<svg version="1.0" xmlns="http://www.w3.org/2000/svg"
 width="240.000000pt" height="240.000000pt" viewBox="0 0 240.000000 240.000000"
 preserveAspectRatio="xMidYMid meet">
<metadata>
Created by potrace 1.11, written by Peter Selinger 2001-2013
</metadata>
<g transform="translate(0.000000,240.000000) scale(0.100000,-0.100000)"
fill="#000000" stroke="none">
<path d="M695 2388 c-222 -123 -405 -346 -483 -588 -41 -125 -51 -204 -47
-360 3 -107 9 -155 30 -230 62 -226 198 -428 379 -563 44 -32 97 -67 118 -78
l39 -20 -20 38 c-11 23 -45 57 -83 85 -438 321 -543 907 -243 1359 56 83 150
180 234 243 44 32 70 60 82 87 10 21 17 39 16 39 -1 0 -11 -6 -22 -12z"/>
<path d="M1682 2360 c6 -20 37 -52 87 -89 95 -73 124 -100 187 -176 105 -124
174 -268 210 -435 13 -62 12 -298 -1 -367 -20 -99 -73 -236 -126 -324 -50 -84
-206 -247 -288 -302 -46 -31 -99 -92 -88 -103 6 -7 82 36 142 81 207 154 334
346 406 610 10 34 14 107 13 230 0 165 -3 187 -27 266 -36 119 -67 185 -132
286 -85 129 -217 255 -348 331 -21 12 -40 22 -42 22 -2 0 1 -14 7 -30z"/>
<path d="M1740 2227 c0 -18 23 -47 81 -103 70 -69 179 -210 179 -234 0 -4 -7
-10 -15 -13 -9 -4 -26 13 -50 54 -20 32 -70 94 -110 137 -73 75 -74 76 -75 46
0 -22 10 -39 36 -65 42 -40 99 -115 137 -181 16 -27 30 -48 33 -48 3 0 18 7
35 15 l29 16 20 -45 c10 -25 24 -65 31 -88 11 -42 14 -54 25 -113 10 -50 11
-215 2 -274 -19 -124 -112 -361 -143 -361 -25 0 -22 15 20 98 59 117 85 215
92 345 5 104 5 107 -16 107 -19 0 -21 -6 -22 -52 -1 -53 -6 -103 -14 -125 -2
-7 -15 -9 -38 -3 -34 7 -35 7 -42 -29 -9 -46 -12 -51 -31 -44 -16 6 -16 12 1
93 8 37 7 173 -1 215 -5 26 -11 35 -21 31 -8 -3 -16 -6 -17 -6 -1 0 -1 -51 1
-112 2 -73 -3 -134 -12 -173 -8 -33 -14 -62 -15 -65 0 -4 16 -12 36 -19 24 -9
34 -17 30 -27 -3 -8 -9 -21 -12 -29 -8 -20 25 -32 37 -14 5 8 16 39 25 69 18
62 29 79 44 64 20 -20 -47 -196 -117 -306 -21 -33 -14 -42 40 -47 24 -3 -4
-43 -88 -126 -54 -54 -97 -105 -101 -121 l-7 -28 32 23 c101 72 214 203 278
321 179 331 138 766 -99 1051 -48 58 -119 129 -171 169 l-27 21 0 -24z"/>
<path d="M541 2153 c-125 -125 -190 -230 -245 -393 -33 -102 -41 -162 -40
-315 1 -187 38 -317 139 -489 46 -79 151 -195 219 -244 l47 -34 -7 29 c-3 15
-17 37 -31 49 -20 17 -22 23 -10 32 8 7 17 9 20 5 4 -3 7 7 7 23 0 21 -10 40
-31 60 -37 34 -109 129 -109 143 0 5 6 11 13 14 7 3 29 -19 51 -49 42 -57 44
-58 65 -45 10 7 3 22 -33 71 -25 35 -47 68 -49 74 -3 7 -16 5 -37 -7 -17 -9
-35 -15 -39 -13 -4 3 -16 25 -26 49 -14 34 -22 43 -37 40 -22 -6 -23 -2 6 -67
28 -63 93 -162 144 -218 28 -31 33 -41 23 -51 -10 -9 -21 -2 -53 33 -135 150
-213 335 -233 548 l-7 72 41 0 c39 0 41 1 42 33 0 17 2 41 4 52 2 11 6 41 10
68 5 36 10 47 24 47 15 0 18 -8 17 -37 -1 -34 2 -38 29 -43 l30 -5 0 -110 c0
-61 3 -115 7 -121 5 -8 20 -9 43 -4 19 4 35 5 36 1 9 -70 44 -161 90 -232 29
-46 49 -56 49 -24 0 8 -15 43 -34 77 -38 70 -64 150 -71 222 -5 41 -3 47 12
44 12 -2 20 -17 25 -48 15 -90 30 -131 47 -128 17 4 18 21 2 83 -5 22 -11 63
-13 90 l-4 50 -38 -3 -38 -3 6 55 c8 61 42 175 58 191 7 7 15 3 25 -12 9 -13
21 -23 27 -23 16 0 55 71 49 88 -6 17 -24 15 -38 -5 -7 -10 -19 -14 -29 -10
-16 6 -16 9 4 37 21 29 21 60 2 60 -13 0 -57 -67 -86 -130 -33 -73 -52 -161
-55 -251 -1 -41 -7 -78 -12 -84 -37 -37 -33 146 6 277 12 41 12 47 -2 52 -8 3
-16 6 -18 6 -2 0 -11 -22 -20 -50 -10 -31 -22 -50 -32 -50 -12 0 -14 7 -9 36
9 43 53 149 79 187 18 27 17 57 -2 57 -15 0 -49 -53 -80 -126 -32 -74 -42 -84
-67 -60 -8 9 -19 16 -24 16 -13 0 -28 -52 -41 -140 -9 -66 -14 -80 -29 -80
-20 0 -20 -3 2 120 33 191 127 359 282 509 51 49 72 91 45 91 -5 0 -50 -39
-98 -87z"/>
<path d="M588 2100 c-57 -49 -130 -145 -169 -221 -25 -51 -27 -58 -11 -64 18
-7 21 -4 72 86 19 33 63 91 98 128 44 47 62 72 60 88 -3 22 -5 21 -50 -17z"/>
<path d="M1144 2050 c-32 -13 -71 -65 -78 -105 -11 -58 31 -153 92 -208 20
-19 20 -19 -22 -60 -59 -58 -87 -108 -93 -167 -5 -45 -1 -60 38 -138 l44 -87
3 -385 c2 -314 6 -394 18 -432 9 -26 20 -50 25 -53 16 -11 10 -24 -32 -67 -58
-62 -73 -94 -73 -163 -2 -186 184 -253 264 -95 23 46 26 125 6 173 -7 18 -33
55 -58 82 l-46 50 26 50 25 50 2 391 1 392 40 81 c26 55 44 80 54 78 9 -1 13
-11 11 -22 -7 -40 -6 -50 9 -50 34 0 56 119 36 200 -7 28 -4 32 43 58 l50 28
16 -55 c22 -76 21 -192 -2 -229 -5 -9 14 -26 29 -27 10 0 30 97 30 141 -1 27
4 39 14 40 8 1 19 3 24 4 6 1 16 3 24 4 10 1 13 10 11 32 -13 96 -53 134 -47
45 3 -41 1 -47 -14 -44 -10 1 -21 17 -26 33 -16 54 -41 105 -50 105 -5 0 -24
-11 -41 -24 -18 -13 -51 -33 -74 -45 -49 -24 -48 -22 -28 -76 20 -55 19 -77
-2 -73 -11 2 -18 14 -20 32 -3 42 -39 105 -90 158 l-46 46 37 39 c124 131 87
305 -66 302 -24 0 -52 -4 -64 -9z m123 -40 c71 -43 60 -150 -25 -234 l-36 -36
-34 32 c-68 66 -91 161 -51 212 38 49 93 58 146 26z m2 -376 c55 -60 77 -115
65 -167 -3 -17 -23 -62 -43 -100 l-36 -70 -2 -381 c-3 -380 -9 -452 -39 -477
-11 -9 -17 -4 -31 27 -14 34 -16 90 -18 419 -2 412 -1 410 -60 521 -35 66 -37
96 -12 155 16 39 96 129 114 129 6 0 34 -25 62 -56z m-14 -1315 c48 -53 63
-91 60 -150 -4 -66 -46 -125 -97 -134 -34 -6 -87 30 -104 70 -17 41 -18 110
-1 147 15 35 78 107 93 108 7 0 28 -18 49 -41z"/>
<path d="M1153 1954 c-20 -20 -24 -31 -19 -57 7 -38 39 -67 73 -67 32 0 73 42
73 75 0 14 -11 37 -25 50 -31 32 -69 32 -102 -1z m96 -37 c16 -42 -45 -77 -77
-45 -33 33 10 99 50 77 11 -6 23 -20 27 -32z"/>
<path d="M1185 1920 c-9 -14 4 -50 18 -50 25 0 39 18 32 39 -7 22 -39 29 -50
11z"/>
<path d="M1151 1574 c-32 -27 -48 -76 -37 -117 6 -25 52 -77 67 -77 15 0 10
38 -6 43 -20 8 -34 66 -23 97 5 14 18 31 29 38 29 18 75 -1 87 -36 11 -33 -3
-91 -23 -99 -8 -3 -15 -14 -15 -24 0 -18 2 -19 29 -4 35 18 56 71 47 120 -8
42 -57 85 -96 85 -16 0 -42 -11 -59 -26z"/>
<path d="M1186 1504 c-3 -9 -6 -19 -6 -24 0 -12 28 -20 45 -14 20 8 19 40 -1
48 -24 9 -31 7 -38 -10z"/>
<path d="M610 2005 l-35 -36 33 -25 32 -25 -45 -64 c-43 -60 -45 -64 -27 -74
17 -9 26 -2 71 59 53 73 56 92 19 118 -14 10 -16 17 -8 27 6 7 7 21 2 34 -7
21 -9 20 -42 -14z"/>
<path d="M1741 2006 c-10 -11 -6 -21 17 -48 62 -72 138 -210 127 -228 -12 -20
-31 -10 -43 23 -6 17 -21 47 -33 66 -18 30 -22 32 -35 19 -13 -13 -12 -20 10
-63 29 -54 32 -71 14 -78 -8 -2 -29 26 -51 67 -39 72 -64 106 -77 106 -16 0
-20 -34 -7 -49 61 -70 108 -206 113 -326 4 -110 -14 -193 -63 -293 -38 -77
-36 -91 10 -92 23 0 22 -21 -4 -54 -13 -17 -19 -35 -16 -49 3 -12 11 -44 17
-70 l12 -49 39 44 c45 49 109 142 109 156 0 5 -7 12 -15 16 -10 3 -27 -13 -54
-52 -48 -71 -68 -89 -82 -75 -8 8 1 27 29 65 21 29 49 72 61 95 20 41 21 43 2
52 -16 9 -21 6 -31 -19 -12 -30 -33 -39 -45 -20 -3 5 4 28 15 50 54 106 73
270 46 398 -12 57 -11 62 4 62 10 0 36 6 58 14 l40 15 11 -47 c11 -46 19 -123
20 -189 1 -26 5 -33 22 -33 19 0 20 5 18 81 -2 86 4 99 49 99 12 0 22 2 22 4
0 9 -30 135 -36 150 -7 17 -29 21 -38 7 -3 -5 1 -32 10 -61 13 -43 13 -54 2
-61 -18 -11 -23 -3 -43 65 -27 97 -81 194 -157 284 -31 37 -31 37 -47 18z"/>
<path d="M1723 1935 c-8 -23 26 -58 43 -44 11 9 10 15 -3 35 -18 28 -31 31
-40 9z"/>
<path d="M1633 1791 c-8 -13 -8 -22 -1 -29 8 -8 3 -13 -18 -18 -36 -9 -46 -22
-33 -47 10 -18 11 -18 45 2 31 19 34 19 43 3 18 -35 42 -129 48 -189 l6 -63
-41 0 -40 0 -7 -47 c-3 -27 -17 -75 -30 -107 -18 -45 -21 -63 -13 -73 9 -11
14 -8 27 14 21 35 37 76 51 131 11 43 40 60 40 22 0 -24 35 -28 44 -5 3 9 4
60 2 113 -5 103 -26 181 -71 258 -31 53 -38 58 -52 35z"/>
<path d="M761 1678 c-15 -35 -31 -71 -34 -80 -4 -11 -12 -15 -22 -12 -11 5
-14 15 -9 39 4 24 2 34 -10 38 -19 8 -37 -29 -40 -78 -1 -27 3 -30 33 -35 l34
-5 3 -80 c2 -70 29 -184 49 -203 3 -3 -11 -15 -30 -26 l-34 -21 16 -33 c12
-26 18 -30 29 -21 8 6 14 20 14 30 0 17 11 24 32 20 19 -3 26 37 12 64 -64
123 -61 297 7 413 20 35 18 52 -7 52 -9 0 -27 -26 -43 -62z"/>
<path d="M856 1691 c-4 -5 -15 -38 -26 -72 -24 -73 -26 -119 -6 -119 8 0 20
26 31 73 9 39 21 79 26 88 10 19 -15 48 -25 30z"/>
<path d="M926 1642 c-39 -38 -56 -174 -32 -255 17 -60 25 -70 44 -58 10 6 9
17 -4 52 -21 60 -19 150 5 204 15 35 17 46 7 54 -7 6 -16 7 -20 3z"/>
<path d="M983 1593 c-22 -51 -27 -120 -14 -168 15 -53 25 -67 43 -60 14 5 14
11 1 48 -20 58 -19 106 5 160 17 39 18 46 5 51 -22 9 -23 9 -40 -31z"/>
<path d="M1486 1552 c-2 -4 -5 -39 -5 -78 0 -39 -7 -85 -16 -106 -18 -46 -18
-45 1 -52 31 -12 68 148 50 218 -6 26 -20 34 -30 18z"/>
<path d="M410 1485 l0 -55 -40 0 c-47 0 -47 -1 -25 -114 17 -91 19 -96 44 -89
16 4 18 10 11 27 -4 12 -11 48 -15 79 -6 47 -5 57 8 57 10 0 21 -26 35 -89 30
-128 47 -165 72 -157 11 3 29 9 39 12 14 4 23 -1 31 -18 7 -12 33 -52 58 -87
42 -60 46 -63 54 -42 6 19 -1 37 -35 90 -24 36 -56 96 -72 134 -25 61 -41 78
-58 61 -3 -3 0 -25 8 -49 11 -39 11 -44 -5 -48 -26 -7 -60 117 -67 244 -5 88
-8 99 -24 99 -16 0 -19 -8 -19 -55z"/>
<path d="M804 1428 c7 -52 25 -107 41 -131 10 -14 14 -15 23 -5 8 10 5 29 -9
71 -11 31 -20 68 -21 82 -2 17 -8 25 -21 25 -16 0 -18 -6 -13 -42z"/>
<path d="M1652 1234 c-26 -52 -30 -69 -21 -80 14 -17 24 -5 65 76 21 43 24 54
13 61 -22 14 -23 13 -57 -57z"/>
<path d="M1762 897 c-21 -22 -32 -43 -32 -62 l0 -29 50 49 c38 37 47 52 38 62
-15 19 -20 17 -56 -20z"/>
<path d="M910 405 c0 -25 0 -25 93 -25 55 1 101 6 115 13 l23 13 -26 12 c-14
7 -66 12 -115 12 -89 0 -90 0 -90 -25z"/>
<path d="M1286 418 l-29 -11 24 -13 c15 -8 59 -13 117 -14 92 0 92 0 92 25 0
25 -1 25 -87 24 -49 0 -101 -5 -117 -11z"/>
</g>
</svg>
